HIERARCHY
ROOT reference
{
  OFFSET 0 0 0
  CHANNELS 6 Xposition Yposition Zposition Zrotation Xrotation Yrotation
  JOINT root
  {
    OFFSET 0 89.714 0
    CHANNELS 6 Xposition Yposition Zposition Zrotation Xrotation Yrotation
    JOINT Hips
    {
      OFFSET 0 0 0
      CHANNELS 6 Xposition Yposition Zposition Zrotation Xrotation Yrotation
      JOINT Spine
      {
        OFFSET -0.015203 -0.106537 -0.014789
        CHANNELS 6 Xposition Yposition Zposition Zrotation Xrotation Yrotation
        JOINT Spine1
        {
          OFFSET 3.93684 17.4026 5.11321
          CHANNELS 6 Xposition Yposition Zposition Zrotation Xrotation Yrotation
          JOINT Spine2
          {
            OFFSET 3.93678 16.907 6.57505
            CHANNELS 6 Xposition Yposition Zposition Zrotation Xrotation Yrotation
            JOINT Neck
            {
              OFFSET 5.9722 14.8613 9.3798
              CHANNELS 6 Xposition Yposition Zposition Zrotation Xrotation Yrotation
              JOINT Head
              {
                OFFSET 3.78039 8.20694 7.16562
                CHANNELS 6 Xposition Yposition Zposition Zrotation Xrotation Yrotation
                End Site
                {
                  OFFSET 0 0 0
                }
              }
            }
            JOINT RightShoulder
            {
              OFFSET 3.36963 14.3324 11.8717
              CHANNELS 6 Xposition Yposition Zposition Zrotation Xrotation Yrotation
              JOINT RightArm
              {
                OFFSET -10.2302 -4.11527 11.7053
                CHANNELS 6 Xposition Yposition Zposition Zrotation Xrotation Yrotation
                JOINT RightForearm
                {
                  OFFSET 1.20457 -10.985 27.2496
                  CHANNELS 6 Xposition Yposition Zposition Zrotation Xrotation Yrotation
                  JOINT RightHand
                  {
                    OFFSET 11.7023 -1.52848 21.9572
                    CHANNELS 6 Xposition Yposition Zposition Zrotation Xrotation Yrotation
                    End Site
                    {
                      OFFSET 0 0 0
                    }
                  }
                }
              }
            }
            JOINT LeftShoulder
            {
              OFFSET 8.58235 15.3773 6.89867
              CHANNELS 6 Xposition Yposition Zposition Zrotation Xrotation Yrotation
              JOINT LeftArm
              {
                OFFSET 10.9232 1.67923 -11.682
                CHANNELS 6 Xposition Yposition Zposition Zrotation Xrotation Yrotation
                JOINT LeftForearm
                {
                  OFFSET -0.717093 -15.9339 -24.7035
                  CHANNELS 6 Xposition Yposition Zposition Zrotation Xrotation Yrotation
                  JOINT LeftHand
                  {
                    OFFSET 7.20695 -19.1998 14.1714
                    CHANNELS 6 Xposition Yposition Zposition Zrotation Xrotation Yrotation
                    End Site
                    {
                      OFFSET 0 0 0
                    }
                  }
                }
              }
            }
          }
        }
      }
      JOINT RightUpLeg
      {
        OFFSET -7.3888 0.243269 6.0585
        CHANNELS 6 Xposition Yposition Zposition Zrotation Xrotation Yrotation
        JOINT RightLeg
        {
          OFFSET -3.28208 -41.9395 16.047
          CHANNELS 6 Xposition Yposition Zposition Zrotation Xrotation Yrotation
          JOINT RightFoot
          {
            OFFSET -1.49651 -39.7124 -10.7825
            CHANNELS 6 Xposition Yposition Zposition Zrotation Xrotation Yrotation
            JOINT RightToe
            {
              OFFSET -3.13625 -7.17479 16.2119
              CHANNELS 6 Xposition Yposition Zposition Zrotation Xrotation Yrotation
              End Site
              {
                OFFSET 0 0 0
              }
            }
          }
        }
      }
      JOINT LeftUpLeg
      {
        OFFSET 7.3888 -0.243279 -6.0585
        CHANNELS 6 Xposition Yposition Zposition Zrotation Xrotation Yrotation
        JOINT LeftLeg
        {
          OFFSET 21.949 -39.1408 3.66606
          CHANNELS 6 Xposition Yposition Zposition Zrotation Xrotation Yrotation
          JOINT LeftFoot
          {
            OFFSET 2.9339 -39.0208 -12.8195
            CHANNELS 6 Xposition Yposition Zposition Zrotation Xrotation Yrotation
            JOINT LeftToe
            {
              OFFSET 12.6546 -11.1333 6.32858
              CHANNELS 6 Xposition Yposition Zposition Zrotation Xrotation Yrotation
              End Site
              {
                OFFSET 0 0 0
              }
            }
          }
        }
      }
    }
  }
}
MOTION
Frames:	6
Frame Time:	0.0333333
-26.8912 0 55.7672 0 0 -0 7.42055 88.265 -1.59319 -1.53463 -1.09558 -11.7208 -1e-06 -8e-06 -5e-06 0.01816 0.0147012 -0.00570566 -0.015203 -0.106537 -0.014789 -0.695603 -0.774944 1.9656 3.93684 17.4026 5.11321 -0.52685 -0.957802 2.88214 3.93678 16.907 6.57505 -0.0581894 -0.558409 2.02364 5.9722 14.8613 9.3798 0.400596 0.855142 0.623565 3.78039 8.20694 7.16562 0.859354 1.40107 1.27115 3.36963 14.3324 11.8717 -0.507606 0.0791074 -1.97571 -10.2302 -4.11527 11.7053 1.30169 3.9657 0.880859 1.20457 -10.985 27.2496 0.250707 -0.390485 0.574923 11.7023 -1.52848 21.9572 -0.451215 -0.538214 -0.190831 8.58235 15.3773 6.89867 -0.368223 -0.128808 -1.05604 10.9232 1.67923 -11.682 0.0936925 -0.664355 -0.229038 -0.717093 -15.9339 -24.7035 -0.135512 0.731375 0.176288 7.20695 -19.1998 14.1714 0.21562 0.0173831 -0.305602 -7.3888 0.243269 6.0585 5.97851 19.6646 4.0221 -3.28208 -41.9395 16.047 0.917599 13.1851 -0.828501 -1.49651 -39.7124 -10.7825 19.1231 32.2268 -3.74411 -3.13625 -7.17479 16.2119 -43.6431 -44.7289 -12.1646 7.3888 -0.243279 -6.0585 -23.8367 -26.5791 0.522716 21.949 -39.1408 3.66606 9.50319 -8.73093 -3.11781 2.9339 -39.0208 -12.8195 10.3925 9.72665 -0.0866942 12.6546 -11.1333 6.32858 -5.45118 20.9025 0.525504 
-27.385 0 58.4445 0 0 -0 7.89994 88.6457 -1.29672 -1.4626 -1.04965 -11.2299 -1e-06 -8e-06 -5e-06 -0.009707 -0.00786151 0.00298067 -0.015203 -0.106537 -0.014789 -0.654986 -0.746419 1.84292 3.93684 17.4026 5.11321 -0.493311 -0.92306 2.71528 3.93678 16.907 6.57505 -0.0519715 -0.54045 1.90667 5.9722 14.8613 9.3798 0.356272 0.894999 0.528537 3.78039 8.20694 7.16562 0.826991 1.48538 1.08315 3.36963 14.3324 11.8717 -0.508146 0.085359 -1.99685 -10.2302 -4.11527 11.7053 1.0192 3.91616 0.492938 1.20457 -10.985 27.2496 0.290641 -0.451891 0.66584 11.7023 -1.52848 21.9572 -0.45461 -0.53152 -0.172801 8.58235 15.3773 6.89867 -0.328738 -0.0917494 -1.05176 10.9232 1.67923 -11.682 -0.209854 -0.721549 -0.284734 -0.717093 -15.9339 -24.7035 -0.118025 0.637688 0.153598 7.20695 -19.1998 14.1714 0.21176 0.0157592 -0.299224 -7.3888 0.243269 6.0585 5.14908 18.3414 3.92477 -3.28208 -41.9395 16.047 1.10176 15.4713 -0.998893 -1.49651 -39.7124 -10.7825 24.1065 41.0352 -5.54751 -3.13625 -7.17479 16.2119 -49.1968 -37.7375 -17.053 7.3888 -0.243279 -6.0585 -23.7681 -25.3343 0.205172 21.949 -39.1408 3.66606 9.14008 -8.38326 -3.02327 2.9339 -39.0208 -12.8195 11.9822 10.1159 -0.564991 12.6546 -11.1333 6.32858 -5.33121 21.086 0.473026 
-29.277 0 62.0636 0 0 -0 8.73102 89.4072 -1.08901 -1.73578 -1.23175 -10.6203 -1e-06 -8e-06 -5e-06 0.174079 0.14082 -0.0542641 -0.015203 -0.106537 -0.014789 -0.553433 -0.568869 1.71742 3.93684 17.4026 5.11321 -0.416135 -0.699166 2.43359 3.93678 16.907 6.57505 -0.0310051 -0.397537 1.70153 5.9722 14.8613 9.3798 0.206416 0.892218 0.467206 3.78039 8.20694 7.16562 0.570101 1.54113 0.922537 3.36963 14.3324 11.8717 -0.479099 0.120703 -2.0035 -10.2302 -4.11527 11.7053 0.622552 3.34488 0.104058 1.20457 -10.985 27.2496 0.240834 -0.375277 0.552427 11.7023 -1.52848 21.9572 -0.305175 -0.433071 -0.178767 8.58235 15.3773 6.89867 -0.23882 0.023351 -1.18711 10.9232 1.67923 -11.682 -0.874362 -0.897954 -0.588667 -0.717093 -15.9339 -24.7035 -0.0370992 0.201483 0.0483785 7.20695 -19.1998 14.1714 0.174284 -0.00360053 -0.341738 -7.3888 0.243269 6.0585 2.70416 12.8131 1.6264 -3.28208 -41.9395 16.047 1.78307 23.03 -1.63745 -1.49651 -39.7124 -10.7825 30.2169 48.3675 -9.36526 -3.13625 -7.17479 16.2119 -42.2079 -20.7877 -19.6794 7.3888 -0.243279 -6.0585 -22.7515 -23.661 1.07709 21.949 -39.1408 3.66606 7.81653 -7.12343 -2.66124 2.9339 -39.0208 -12.8195 14.2532 9.0569 -1.6405 12.6546 -11.1333 6.32858 -5.05821 21.5012 0.35235 
-30.3797 0 63.7013 0 0 -0 9.21319 89.7274 -1.17838 -1.78623 -1.28936 -10.3512 -1e-06 -8e-06 -5e-06 0.167061 0.135149 -0.0520683 -0.015203 -0.106537 -0.014789 -0.459523 -0.468054 1.56829 3.93684 17.4026 5.11321 -0.322044 -0.56573 2.20603 3.93678 16.907 6.57505 0.00802224 -0.313684 1.53444 5.9722 14.8613 9.3798 0.100429 0.923472 0.489963 3.78039 8.20694 7.16562 0.383056 1.64477 0.93042 3.36963 14.3324 11.8717 -0.480434 0.0813549 -1.88733 -10.2302 -4.11527 11.7053 0.578369 3.11425 0.0284478 1.20457 -10.985 27.2496 0.212941 -0.332231 0.488806 11.7023 -1.52848 21.9572 -0.296518 -0.422606 -0.213078 8.58235 15.3773 6.89867 -0.204999 0.0403298 -1.11294 10.9232 1.67923 -11.682 -1.29526 -0.937346 -0.842805 -0.717093 -15.9339 -24.7035 0.003753 -0.0204263 -0.00490066 7.20695 -19.1998 14.1714 0.196035 0.00012841 -0.430683 -7.3888 0.243269 6.0585 1.13299 9.58434 1.00764 -3.28208 -41.9395 16.047 2.19633 27.005 -2.02969 -1.49651 -39.7124 -10.7825 23.674 39.8937 -6.21736 -3.13625 -7.17479 16.2119 -31.751 -21.9417 -13.0661 7.3888 -0.243279 -6.0585 -22.298 -22.9553 1.75911 21.949 -39.1408 3.66606 7.30306 -6.63809 -2.51353 2.9339 -39.0208 -12.8195 15.1073 8.21326 -2.17866 12.6546 -11.1333 6.32858 -4.90703 21.7298 0.284791 
-31.3447 0 65.3254 0 0 -0 9.68179 90.0206 -1.36109 -2.02478 -1.35605 -10.1074 -1e-06 -8e-06 -5e-06 0.160141 0.129571 -0.0493933 -0.015203 -0.106537 -0.014789 -0.277443 -0.358254 1.43792 3.93684 17.4026 5.11321 -0.103775 -0.413559 1.98666 3.93678 16.907 6.57505 0.130898 -0.214844 1.36007 5.9722 14.8613 9.3798 0.0354771 0.907668 0.493353 3.78039 8.20694 7.16562 0.254817 1.65025 0.919588 3.36963 14.3324 11.8717 -0.441797 0.0621955 -1.69385 -10.2302 -4.11527 11.7053 0.312512 2.84772 -0.167241 1.20457 -10.985 27.2496 0.255308 -0.397583 0.585425 11.7023 -1.52848 21.9572 -0.324774 -0.41985 -0.175222 8.58235 15.3773 6.89867 -0.147716 0.0620761 -0.952507 10.9232 1.67923 -11.682 -1.77971 -0.994825 -1.12131 -0.717093 -15.9339 -24.7035 0.0275111 -0.150048 -0.035946 7.20695 -19.1998 14.1714 0.210883 -0.00820328 -0.543709 -7.3888 0.243269 6.0585 -0.357596 6.16647 1.52181 -3.28208 -41.9395 16.047 2.55008 30.0925 -2.36772 -1.49651 -39.7124 -10.7825 17.7676 31.8294 -5.09031 -3.13625 -7.17479 16.2119 -20.5038 -20.9215 -6.58602 7.3888 -0.243279 -6.0585 -21.6325 -22.2776 2.48858 21.949 -39.1408 3.66606 6.80701 -6.17117 -2.36702 2.9339 -39.0208 -12.8195 15.8946 7.30391 -2.65368 12.6546 -11.1333 6.32858 -4.81967 21.936 0.236838 
-33.4524 0 68.7987 0 0 -0 10.521 90.5144 -1.9684 -2.50613 -1.40002 -9.44016 -1e-06 -8e-06 -5e-06 0.146165 0.118271 -0.0467073 -0.015203 -0.106537 -0.014789 0.118895 -0.11924 1.2302 3.93684 17.4026 5.11321 0.386706 -0.0769609 1.61292 3.93678 16.907 6.57505 0.41844 0.00826496 1.04927 5.9722 14.8613 9.3798 0.0172919 0.709874 0.423645 3.78039 8.20694 7.16562 0.153731 1.31634 0.797117 3.36963 14.3324 11.8717 -0.350026 0.0392983 -1.30678 -10.2302 -4.11527 11.7053 -0.407085 1.92685 -0.668061 1.20457 -10.985 27.2496 0.275438 -0.42854 0.631258 11.7023 -1.52848 21.9572 -0.275347 -0.355632 -0.113288 8.58235 15.3773 6.89867 -0.0875381 0.0594978 -0.66545 10.9232 1.67923 -11.682 -2.48853 -1.03005 -1.43021 -0.717093 -15.9339 -24.7035 0.0518166 -0.283036 -0.0677351 7.20695 -19.1998 14.1714 0.229923 0.0107082 -0.538977 -7.3888 0.243269 6.0585 -3.51685 -0.462098 2.28553 -3.28208 -41.9395 16.047 2.65262 30.9378 -2.46605 -1.49651 -39.7124 -10.7825 10.2389 20.3999 -6.82365 -3.13625 -7.17479 16.2119 -1.8472 -16.1679 2.28664 7.3888 -0.243279 -6.0585 -20.408 -21.1103 4.19298 21.949 -39.1408 3.66606 6.15857 -5.56386 -2.16996 2.9339 -39.0208 -12.8195 17.0955 5.53557 -3.93068 12.6546 -11.1333 6.32858 -3.42349 22.928 -0.268121 
